<svg width="125" height="28" viewBox="0 0 125 28" fill="none" xmlns="http://www.w3.org/2000/svg">
<path d="M101.531 14.3579L107.33 11.2559L109.923 15.979L104.503 23.7575C104.285 22.1883 103.927 21.1387 102.487 17.039C102.342 16.6233 102.087 15.8232 101.994 15.527C101.843 15.0645 101.807 15.0749 101.531 14.3579Z" fill="#F0C218"/>
<path d="M104.897 25.1078C104.616 24.2608 104.455 24.0946 104.086 22.489C103.65 20.5821 103.645 20.951 103.058 18.6803L109.89 15.9316L112.961 21.3459C112.338 22.2656 111.854 23.1957 111.563 23.6269C110.067 25.8456 109.272 27.1498 107.589 27.1966C106.783 27.2278 105.391 26.5887 104.897 25.1078Z" fill="#014660"/>
<path d="M103.064 18.6753L109.882 16.0098L112.797 21.6163C112.173 22.536 111.856 23.2738 111.565 23.7051C110.827 24.8014 110.677 25.1807 109.902 25.9601C109.908 25.9549 103.07 18.6857 103.064 18.6753Z" fill="#00537D"/>
<path d="M103.064 18.6745L109.83 15.957L112.797 21.6155L103.064 18.6745Z" fill="#006993"/>
<path d="M124.341 2.11618C124.308 2.05829 124.262 2.00859 124.206 1.97069C123.474 1.29521 119.707 0.988649 115.274 0.869141L117.82 5.61829L124.341 2.11618Z" fill="#B8E4FA"/>
<path d="M124.34 2.11523C124.369 2.17554 124.385 2.24092 124.387 2.30749C124.548 3.28953 122.714 6.59939 120.365 10.3561L117.819 5.60695L124.34 2.11523Z" fill="#FFD31C"/>
<path d="M111.31 9.11001L115.279 0.869141L117.825 5.61829L111.31 9.11001Z" fill="#52A5D6"/>
<path d="M111.31 9.1102C111.31 9.1102 115.84 9.73372 120.371 10.3624L117.825 5.61328L111.31 9.1102Z" fill="#368EBA"/>
<path d="M101.567 14.3992L107.329 11.2296L104.783 6.48047L95.3057 6.78703C96.5007 7.82624 97.2126 8.7875 99.8418 12.1441C100.112 12.4871 100.642 13.1418 100.839 13.3808C101.141 13.7549 101.11 13.7757 101.567 14.3992Z" fill="#025092"/>
<path d="M94.3867 5.72291C94.9427 6.42438 94.9946 6.6478 96.1378 7.8273C97.4991 9.23022 97.1874 9.03277 98.7565 10.7734L104.67 6.48673L101.755 0.890625C100.643 0.911409 99.775 0.932193 99.2554 0.937389C96.5794 0.984153 95.0518 0.937389 94.0957 2.31953C93.6385 2.97942 93.4151 4.49666 94.3867 5.72291Z" fill="#2B84C1"/>
<path d="M108.732 4.45364L106.81 0.816433C109.491 0.795649 112.536 0.795649 115.274 0.873589L108.732 4.45364Z" fill="#69AED0"/>
<path d="M98.7609 10.7734L104.705 6.54388L101.671 0.890625C100.559 0.911409 99.691 0.932193 99.1714 0.937389C97.8516 0.958173 97.4464 0.880233 96.376 1.10366C96.376 1.10366 98.7505 10.7682 98.7609 10.7734Z" fill="#0073B2"/>
<path d="M112.795 21.6155C113.601 20.4516 114.739 18.9187 115.846 17.282L113.866 13.7539L109.74 15.9778L112.795 21.6155Z" fill="#F2C417"/>
<path d="M113.908 13.9093L107.304 11.3373L111.362 9.16016L113.908 13.9093Z" fill="#F6C812"/>
<path d="M113.866 13.8643L109.751 16.0051L107.246 11.2871L113.866 13.8643Z" fill="#FFDF5F"/>
<path d="M113.86 13.8518L115.762 17.4006C117.264 15.1819 118.911 12.6879 120.361 10.3652L113.86 13.8518Z" fill="#598FA4"/>
<path d="M120.371 10.3616C120.371 10.3616 116.033 9.71731 111.31 9.10938L113.866 13.8637L120.371 10.3616Z" fill="#5BBFE8"/>
<path d="M108.764 4.35942L106.863 0.810547C104.888 0.826135 103.085 0.857311 101.672 0.883291L104.706 6.53655L108.764 4.35942Z" fill="#2A85B2"/>
<path d="M115.278 0.869141C115.278 0.869141 113.413 4.83889 111.309 9.11001L108.763 4.36086L115.278 0.869141Z" fill="#7EC8EF"/>
<path d="M108.764 4.36239L104.702 6.54102L107.249 11.2893L111.311 9.11064L108.764 4.36239Z" fill="#1F7AB2"/>
<path d="M108.763 4.35938L104.7 6.5417L107.246 11.2857L108.763 4.35938Z" fill="#3295D1"/>
<path d="M102.023 14.0868C103.826 12.9801 105.655 11.9253 107.495 10.8913C109.334 9.85729 111.184 8.83887 113.044 7.84124C114.904 6.8436 116.77 5.86156 118.656 4.90549C120.542 3.94943 122.428 3.00375 124.345 2.11523C122.542 3.22198 120.713 4.27677 118.874 5.31078C117.035 6.34479 115.185 7.3632 113.325 8.36084C111.465 9.35847 109.594 10.3405 107.713 11.2966C105.832 12.2526 103.941 13.1983 102.023 14.0868Z" fill="#212D35"/>
<path d="M98.7607 10.7708L104.7 6.54127L101.754 0.882812L98.7607 10.7708Z" fill="#0063A6"/>
<path d="M4.65102 17.1424L3.03506 19.1481V24.3285H0.25V9.38477H3.03506V15.5057L7.96607 9.38477H11.3435L6.61511 15.1991L11.7747 24.3285H8.59999L4.65102 17.1424Z" fill="#025092"/>
<path d="M14.227 7.68555C15.313 7.68555 15.9677 8.38181 15.9677 9.42621C15.9677 10.4706 15.313 11.1461 14.227 11.1461C13.0995 11.1461 12.4863 10.4706 12.4863 9.42621C12.4863 8.38181 13.167 7.68555 14.227 7.68555Z" fill="#025092"/>
<path d="M15.6249 12.3516H12.8398V24.3232H15.6249V12.3516Z" fill="#025092"/>
<path d="M16.7881 12.3505H18.8353V10.5267L21.6204 8.625V12.3505H24.0573V14.829H21.6204V19.3132C21.6204 21.402 21.9269 21.7293 24.0573 21.7293V24.3273H23.6676C19.9628 24.3273 18.8353 23.1427 18.8353 19.334V14.829H16.7881V12.3505Z" fill="#025092"/>
<path d="M25.7152 21.9068C23.7148 19.0334 24.3643 15.2144 27.2377 13.2087C30.1578 11.1719 33.7898 11.8318 35.8163 14.7363L36.4138 15.5937L28.4172 21.169C29.7058 22.3381 31.4412 22.5044 33.052 21.3768C34.3302 20.4883 34.8342 19.1373 34.564 17.75L37.1776 17.5266C37.4322 19.7193 36.658 21.8289 34.4445 23.3721C31.3581 25.5284 27.6897 24.7438 25.7152 21.9068ZM27.2117 19.1893L32.787 15.3027C31.5244 14.2115 30.0383 14.2219 28.6302 15.2092C27.2688 16.1548 26.77 17.698 27.2117 19.1893Z" fill="#025092"/>
<path d="M37.4521 21.8515L39.9878 19.8458C40.7464 21.1552 41.8895 21.8722 43.2613 21.8722C44.737 21.8722 45.5319 20.911 45.5319 19.8666C45.5319 18.6195 43.9991 18.2091 42.4195 17.7154C40.3931 17.0607 38.1848 16.3021 38.1848 13.4599C38.1848 11.0645 40.2736 9.18359 43.1366 9.18359C45.5319 9.18359 46.9453 10.1033 48.1507 11.3555L45.8593 13.0962C45.2254 12.1349 44.3265 11.6621 43.1574 11.6621C41.7856 11.6621 41.0686 12.3999 41.0686 13.3612C41.0686 14.5667 42.4819 14.9148 44.1186 15.4708C46.1451 16.1255 48.4365 17.0244 48.4365 19.8926C48.4365 22.2464 46.5556 24.5378 43.2769 24.5378C40.6061 24.5326 38.8239 23.3843 37.4521 21.8515Z" fill="#025092"/>
<path d="M50.6563 21.7508C48.739 18.8202 49.508 15.0219 52.4333 13.1046C55.4158 11.1561 59.0219 11.9251 60.96 14.8868L61.5315 15.7598L53.379 21.0909C54.6364 22.3015 56.3615 22.5146 58.0086 21.439C59.3128 20.5869 59.8532 19.2515 59.6298 17.859L62.2486 17.7135C62.4408 19.9114 61.6043 22.0002 59.344 23.4758C56.1952 25.5439 52.5528 24.6501 50.6563 21.7508ZM52.2359 19.08L57.9203 15.3597C56.6941 14.2321 55.208 14.201 53.7687 15.1414C52.3814 16.0508 51.841 17.5784 52.2359 19.08Z" fill="#025092"/>
<path d="M63.2415 12.3516H65.985V13.8273C66.7852 12.7829 68.0115 12.1074 69.5651 12.1074C72.5736 12.1074 74.3142 13.9676 74.3142 17.2255V24.3284H71.5084V17.5113C71.5084 15.6511 70.6095 14.5028 68.8064 14.5028C67.2321 14.5028 66.0006 15.6511 66.0006 17.7555V24.3232H63.2363V12.3516H63.2415Z" fill="#025092"/>
<path d="M75.0889 21.6622L77.6453 20.4359C78.2169 21.5635 79.2197 22.1766 80.5291 22.1766C81.9008 22.1766 82.5763 21.5219 82.5763 20.7217C82.5763 19.8436 81.2461 19.6773 79.7705 19.35C77.7232 18.9187 75.5773 18.264 75.5773 15.7491C75.5773 13.8266 77.4375 12.0859 80.2849 12.0859C82.7218 12.0859 84.2546 13.0264 85.1743 14.5644L82.8205 15.7491C82.3269 14.9074 81.428 14.3774 80.2849 14.3774C78.9755 14.3774 78.3624 14.9905 78.3624 15.666C78.3624 16.4662 79.3028 16.6688 81.1058 17.0585C83.0699 17.4482 85.3198 18.1445 85.3198 20.6594C85.3198 22.3377 83.8234 24.5668 80.4096 24.5668C77.7284 24.5719 76.0501 23.5483 75.0889 21.6622Z" fill="#025092"/>
<path d="M86.7534 21.0654C85.231 17.9167 86.478 14.2431 89.6268 12.7207C92.8328 11.1722 96.3141 12.3933 97.8573 15.5837L98.3093 16.5241L89.5385 20.7589C90.6296 22.1202 92.3183 22.5515 94.085 21.6994C95.4879 21.0239 96.1946 19.7664 96.153 18.3583L98.7666 18.5454C98.6731 20.7485 97.5767 22.7126 95.145 23.8921C91.7572 25.5288 88.2603 24.1779 86.7534 21.0654ZM88.6604 18.6181L94.7761 15.6564C93.7057 14.3782 92.2352 14.16 90.6868 14.9082C89.1955 15.6304 88.4629 17.0749 88.6604 18.6181Z" fill="#025092"/>
</svg>
